<svg width="382" height="61" viewBox="0 0 382 61" fill="none" xmlns="http://www.w3.org/2000/svg">
<path d="M0.6 45L4.44 4.136H10.072L6.712 39.528H22.488L21.976 45H0.6ZM38.6235 45.8C36.1062 45.8 33.8982 45.192 31.9995 43.976C30.1008 42.76 28.6928 40.9573 27.7755 38.568C26.8582 36.1573 26.5702 33.1707 26.9115 29.608C27.2528 26.0027 28.1168 22.9947 29.5035 20.584C30.8902 18.1733 32.6395 16.3707 34.7515 15.176C36.8848 13.96 39.1995 13.352 41.6955 13.352C44.1915 13.352 46.3782 13.9707 48.2555 15.208C50.1328 16.424 51.5408 18.2373 52.4795 20.648C53.4182 23.0373 53.7168 26.024 53.3755 29.608C53.0128 33.1707 52.1382 36.1573 50.7515 38.568C49.3648 40.9573 47.6262 42.76 45.5355 43.976C43.4448 45.192 41.1408 45.8 38.6235 45.8ZM38.9115 40.36C41.2795 40.36 43.2422 39.432 44.7995 37.576C46.3568 35.6987 47.3168 33.0427 47.6795 29.608C48.0208 26.1307 47.6262 23.4533 46.4955 21.576C45.3862 19.6987 43.6582 18.76 41.3115 18.76C38.9648 18.76 37.0235 19.6987 35.4875 21.576C33.9515 23.432 33.0128 26.1093 32.6715 29.608C32.4368 31.8693 32.5222 33.8107 32.9275 35.432C33.3542 37.032 34.0688 38.2587 35.0715 39.112C36.0742 39.944 37.3542 40.36 38.9115 40.36ZM69.025 45.8C67.4677 45.8 66.081 45.48 64.865 44.84C63.649 44.1787 62.7423 43.176 62.145 41.832C61.5477 40.488 61.3343 38.7813 61.505 36.712L63.297 17.16L64.609 18.28H58.977L59.457 14.152H65.025L63.425 15.592L64.385 5.8H70.017L69.057 15.592L67.777 14.152H77.377L76.929 18.28H67.329L68.897 17.16L67.073 36.584C66.945 38.0133 67.1583 39.08 67.713 39.784C68.289 40.488 69.185 40.84 70.401 40.84C71.041 40.84 71.7237 40.7547 72.449 40.584C73.1957 40.392 74.0277 40.1147 74.945 39.752L75.329 44.168C74.2623 44.6587 73.217 45.0533 72.193 45.352C71.1903 45.6507 70.1343 45.8 69.025 45.8ZM92.1405 45.576C90.1138 45.576 88.3432 45.1707 86.8285 44.36C85.3352 43.528 84.2152 42.2373 83.4685 40.488C82.7218 38.7387 82.4765 36.488 82.7325 33.736L84.6205 14.088H90.2525L88.4285 33.16C88.2152 35.464 88.5565 37.2027 89.4525 38.376C90.3485 39.528 91.7245 40.104 93.5805 40.104C95.1165 40.104 96.5138 39.656 97.7725 38.76C99.0525 37.8427 100.109 36.552 100.941 34.888C101.794 33.224 102.327 31.2507 102.541 28.968L103.949 14.088H109.581L106.701 45H101.037L101.581 39.176C100.493 41.2667 99.1378 42.856 97.5165 43.944C95.8952 45.032 94.1032 45.576 92.1405 45.576ZM127.513 45.8C125.145 45.8 123.086 45.3947 121.337 44.584C119.609 43.752 118.286 42.5893 117.369 41.096C116.473 39.5813 116.121 37.8 116.312 35.752H121.625C121.497 37.3947 121.977 38.664 123.065 39.56C124.174 40.4347 125.657 40.872 127.513 40.872C129.39 40.872 130.905 40.4667 132.057 39.656C133.23 38.824 133.891 37.7893 134.041 36.552C134.169 35.464 133.859 34.632 133.113 34.056C132.366 33.4587 131.374 32.9467 130.137 32.52L124.633 30.312C122.499 29.5013 120.878 28.392 119.769 26.984C118.681 25.576 118.243 23.8693 118.457 21.864C118.649 20.136 119.257 18.632 120.281 17.352C121.326 16.072 122.713 15.0907 124.441 14.408C126.19 13.704 128.174 13.352 130.392 13.352C133.934 13.352 136.569 14.1733 138.297 15.816C140.025 17.4587 140.814 19.528 140.665 22.024H135.257C135.235 20.808 134.777 19.88 133.881 19.24C132.985 18.6 131.758 18.28 130.201 18.28C128.942 18.28 127.897 18.472 127.065 18.856C126.254 19.2187 125.625 19.688 125.177 20.264C124.729 20.84 124.451 21.4587 124.345 22.12C124.238 23.1227 124.537 23.9547 125.241 24.616C125.966 25.256 126.915 25.768 128.089 26.152L133.913 28.552C135.961 29.2987 137.571 30.3227 138.745 31.624C139.939 32.904 140.441 34.5467 140.249 36.552C140.099 38.1307 139.491 39.624 138.425 41.032C137.379 42.44 135.939 43.592 134.105 44.488C132.27 45.3627 130.073 45.8 127.513 45.8ZM162.35 45L166.19 4.136H171.822L170.126 21.672H187.214L188.91 4.136H194.574L190.702 45H185.07L186.702 27.112H169.614L167.982 45H162.35ZM212.249 45.8C209.731 45.8 207.523 45.192 205.625 43.976C203.726 42.76 202.318 40.9573 201.401 38.568C200.483 36.1573 200.195 33.1707 200.536 29.608C200.878 26.0027 201.742 22.9947 203.129 20.584C204.515 18.1733 206.265 16.3707 208.377 15.176C210.51 13.96 212.825 13.352 215.321 13.352C217.817 13.352 220.003 13.9707 221.881 15.208C223.758 16.424 225.166 18.2373 226.105 20.648C227.043 23.0373 227.342 26.024 227.001 29.608C226.638 33.1707 225.763 36.1573 224.377 38.568C222.99 40.9573 221.251 42.76 219.161 43.976C217.07 45.192 214.766 45.8 212.249 45.8ZM212.537 40.36C214.905 40.36 216.867 39.432 218.425 37.576C219.982 35.6987 220.942 33.0427 221.305 29.608C221.646 26.1307 221.251 23.4533 220.121 21.576C219.011 19.6987 217.283 18.76 214.937 18.76C212.59 18.76 210.649 19.6987 209.113 21.576C207.577 23.432 206.638 26.1093 206.297 29.608C206.062 31.8693 206.147 33.8107 206.553 35.432C206.979 37.032 207.694 38.2587 208.697 39.112C209.699 39.944 210.979 40.36 212.537 40.36ZM243.45 45.8C241.082 45.8 239.023 45.3947 237.274 44.584C235.546 43.752 234.223 42.5893 233.306 41.096C232.41 39.5813 232.058 37.8 232.25 35.752H237.562C237.434 37.3947 237.914 38.664 239.002 39.56C240.111 40.4347 241.594 40.872 243.45 40.872C245.327 40.872 246.842 40.4667 247.994 39.656C249.167 38.824 249.829 37.7893 249.978 36.552C250.106 35.464 249.797 34.632 249.05 34.056C248.303 33.4587 247.311 32.9467 246.074 32.52L240.57 30.312C238.437 29.5013 236.815 28.392 235.706 26.984C234.618 25.576 234.181 23.8693 234.394 21.864C234.586 20.136 235.194 18.632 236.218 17.352C237.263 16.072 238.65 15.0907 240.378 14.408C242.127 13.704 244.111 13.352 246.33 13.352C249.871 13.352 252.506 14.1733 254.234 15.816C255.962 17.4587 256.751 19.528 256.602 22.024H251.194C251.173 20.808 250.714 19.88 249.818 19.24C248.922 18.6 247.695 18.28 246.138 18.28C244.879 18.28 243.834 18.472 243.002 18.856C242.191 19.2187 241.562 19.688 241.114 20.264C240.666 20.84 240.389 21.4587 240.282 22.12C240.175 23.1227 240.474 23.9547 241.178 24.616C241.903 25.256 242.853 25.768 244.026 26.152L249.85 28.552C251.898 29.2987 253.509 30.3227 254.682 31.624C255.877 32.904 256.378 34.5467 256.186 36.552C256.037 38.1307 255.429 39.624 254.362 41.032C253.317 42.44 251.877 43.592 250.042 44.488C248.207 45.3627 246.01 45.8 243.45 45.8ZM262.691 60.104L267.075 14.152H271.683C271.704 14.8987 271.736 15.6453 271.779 16.392C271.821 17.1387 271.843 17.8747 271.843 18.6C272.931 16.8507 274.221 15.5387 275.715 14.664C277.229 13.7893 278.84 13.352 280.547 13.352C282.723 13.352 284.696 13.992 286.467 15.272C288.259 16.552 289.635 18.408 290.595 20.84C291.576 23.2507 291.896 26.152 291.555 29.544C291.256 32.9573 290.392 35.88 288.963 38.312C287.533 40.7227 285.784 42.5787 283.715 43.88C281.667 45.16 279.512 45.8 277.251 45.8C275.608 45.8 274.168 45.4693 272.931 44.808C271.715 44.1467 270.755 43.176 270.051 41.896L268.323 60.104H262.691ZM277.123 40.168C278.36 40.168 279.597 39.7733 280.835 38.984C282.093 38.1947 283.181 37.0213 284.099 35.464C285.016 33.8853 285.592 31.912 285.827 29.544C286.04 27.304 285.88 25.4053 285.347 23.848C284.835 22.2693 284.045 21.064 282.979 20.232C281.912 19.3787 280.643 18.952 279.171 18.952C277.933 18.952 276.749 19.272 275.619 19.912C274.509 20.552 273.581 21.48 272.835 22.696C272.088 23.912 271.629 25.416 271.459 27.208L270.915 32.52C270.787 34.1413 270.968 35.5173 271.459 36.648C271.971 37.7787 272.717 38.6533 273.699 39.272C274.68 39.8693 275.821 40.168 277.123 40.168ZM305.602 7.72C304.493 7.72 303.65 7.37866 303.074 6.696C302.519 6.01333 302.274 5.096 302.338 3.944C302.445 2.856 302.839 1.96 303.522 1.256C304.226 0.530665 305.143 0.167999 306.274 0.167999C307.405 0.167999 308.247 0.519999 308.802 1.224C309.378 1.90666 309.623 2.81333 309.538 3.944C309.431 5.11733 309.015 6.04533 308.29 6.728C307.586 7.38933 306.69 7.72 305.602 7.72ZM299.266 45L302.178 14.088H307.81L304.898 45H299.266ZM325.65 45.8C324.093 45.8 322.706 45.48 321.49 44.84C320.274 44.1787 319.367 43.176 318.77 41.832C318.173 40.488 317.959 38.7813 318.13 36.712L319.922 17.16L321.234 18.28H315.602L316.082 14.152H321.65L320.05 15.592L321.01 5.8H326.642L325.682 15.592L324.402 14.152H334.002L333.554 18.28H323.954L325.522 17.16L323.698 36.584C323.57 38.0133 323.783 39.08 324.338 39.784C324.914 40.488 325.81 40.84 327.026 40.84C327.666 40.84 328.349 40.7547 329.074 40.584C329.821 40.392 330.653 40.1147 331.57 39.752L331.954 44.168C330.887 44.6587 329.842 45.0533 328.818 45.352C327.815 45.6507 326.759 45.8 325.65 45.8ZM347.326 45.8C345.086 45.8 343.23 45.3413 341.758 44.424C340.307 43.5067 339.251 42.3227 338.59 40.872C337.95 39.4 337.715 37.832 337.886 36.168C338.078 34.1413 338.696 32.4667 339.742 31.144C340.808 29.8 342.206 28.7973 343.934 28.136C345.683 27.4533 347.646 27.112 349.822 27.112C351.166 27.112 352.488 27.2507 353.79 27.528C355.091 27.784 356.328 28.136 357.502 28.584L357.854 25.064C358.131 22.5893 357.843 20.7867 356.99 19.656C356.158 18.5253 354.75 17.96 352.766 17.96C351.614 17.96 350.579 18.152 349.662 18.536C348.744 18.8987 347.998 19.4533 347.422 20.2C346.846 20.9467 346.504 21.8747 346.398 22.984H340.19C340.424 20.6373 341.139 18.76 342.334 17.352C343.528 15.944 345.043 14.9307 346.878 14.312C348.712 13.672 350.675 13.352 352.766 13.352C356.542 13.352 359.358 14.312 361.214 16.232C363.091 18.152 363.838 21.16 363.454 25.256L361.598 45H356.734C356.712 44.2107 356.702 43.432 356.702 42.664C356.723 41.8747 356.723 41.0853 356.702 40.296C355.635 42.1307 354.323 43.5067 352.766 44.424C351.208 45.3413 349.395 45.8 347.326 45.8ZM348.702 41C350.152 41 351.496 40.648 352.734 39.944C353.992 39.24 355.016 38.2587 355.806 37C356.595 35.72 357.032 34.2373 357.118 32.552C356.072 32.2107 354.952 31.9333 353.758 31.72C352.563 31.5067 351.443 31.4 350.398 31.4C348.67 31.4 347.187 31.7627 345.95 32.488C344.712 33.192 344.008 34.4187 343.838 36.168C343.731 37.5333 344.094 38.6853 344.926 39.624C345.779 40.5413 347.038 41 348.702 41ZM371.975 45L376.071 1.256H381.735L377.607 45H371.975Z" fill="white"/>
</svg>
